<?xml version="1.0" encoding="utf-8"?>
<!-- Generator: Adobe Illustrator 24.0.1, SVG Export Plug-In . SVG Version: 6.00 Build 0)  -->
<svg version="1.1" id="Layer_1" xmlns="http://www.w3.org/2000/svg" xmlns:xlink="http://www.w3.org/1999/xlink" x="0px" y="0px"
	 viewBox="0 0 222.1 60.7" style="enable-background:new 0 0 222.1 60.7;" xml:space="preserve">
<style type="text/css">
	.st0{fill:#323D47;}
</style>
<title>Asset 1</title>
<g id="Layer_2_1_">
	<g id="Layer_1-2">
		<path class="st0" d="M10.6,60.5c-1.8,0-3.6-0.4-5.3-1.1c-1.6-0.7-3-2-3.9-3.5c-1-2-1.5-4.2-1.4-6.5l4.7-38.3
			C4.6,8.9,5.1,6.6,6.1,4.6c0.9-1.5,2.3-2.8,3.9-3.5C11.7,0.4,13.6,0,15.4,0c2-0.1,4,0.4,5.8,1.2c1.4,0.7,2.6,1.8,3.5,3.2
			c0.8,1.2,1.2,2.6,1.2,4.1c0,0.4,0,0.8-0.2,1.2c-0.2,0.2-0.5,0.3-0.7,0.3c-0.5,0-0.8-0.1-0.8-0.4c-0.1-0.2-0.1-0.4-0.1-0.6
			c-0.1-0.7-0.2-1.5-0.4-2.2c-0.3-0.8-0.7-1.6-1.2-2.3c-0.7-0.8-1.6-1.4-2.5-1.8c-1.4-0.5-2.8-0.8-4.3-0.7c-2.8,0-5,0.7-6.5,2.3
			s-2.2,3.8-2.2,7L1.9,49.4c0,3.2,0.8,5.5,2.3,7c1.5,1.4,3.8,2.2,6.7,2.2c1.5,0.1,2.9-0.2,4.3-0.7c0.9-0.4,1.8-1,2.4-1.8
			c0.5-0.7,0.9-1.5,1.1-2.3c0.2-0.8,0.4-1.6,0.5-2.3c0-0.2,0.1-0.5,0.2-0.7c0.1-0.2,0.4-0.3,0.8-0.3c0.3,0,0.6,0.1,0.7,0.3
			c0.2,0.4,0.3,0.8,0.2,1.2c0,1.4-0.4,2.8-1.2,4c-0.9,1.4-2.1,2.5-3.5,3.2C14.6,60.2,12.6,60.6,10.6,60.5z"/>
		<path class="st0" d="M110.2,60.7c-1.8,0-3.6-0.4-5.3-1.1c-1.6-0.7-3-2-3.9-3.5c-1-2-1.5-4.2-1.4-6.5l4.7-38.3
			c-0.1-2.3,0.4-4.5,1.5-6.5c0.9-1.6,2.3-2.8,3.9-3.5c1.7-0.7,3.5-1.1,5.3-1.1c2-0.1,4,0.4,5.8,1.2c1.4,0.7,2.6,1.8,3.5,3.2
			c0.8,1.2,1.2,2.6,1.2,4.1c0,0.4,0,0.8-0.2,1.2c-0.2,0.2-0.5,0.3-0.7,0.3c-0.5,0-0.8-0.1-0.8-0.4c-0.1-0.2-0.1-0.4-0.1-0.6
			c0-0.7-0.2-1.5-0.4-2.2c-0.3-0.8-0.7-1.6-1.2-2.3c-0.7-0.8-1.6-1.4-2.5-1.8c-1.4-0.5-2.8-0.8-4.3-0.7c-2.9,0-5,0.7-6.5,2.2
			c-1.5,1.5-2.2,3.8-2.2,6.9l-4.7,38.3c0,3.2,0.8,5.5,2.3,7c1.5,1.5,3.7,2.2,6.7,2.2c1.5,0.1,2.9-0.2,4.3-0.7c0.9-0.4,1.7-1,2.4-1.8
			c0.5-0.7,0.9-1.5,1.2-2.3c0.2-0.7,0.4-1.5,0.5-2.3c0-0.3,0.1-0.5,0.2-0.7c0.1-0.2,0.4-0.3,0.8-0.3c0.3,0,0.6,0.1,0.7,0.3
			c0.2,0.4,0.3,0.8,0.2,1.2c0,1.4-0.4,2.8-1.2,4c-0.9,1.4-2.1,2.5-3.5,3.2C114.2,60.4,112.2,60.8,110.2,60.7z"/>
		<path class="st0" d="M22.4,46.5c-1.7,0-3.3-0.5-4.7-1.4c-1.4-0.9-2.7-2.1-3.5-3.6c-0.9-1.5-1.3-3.1-1.3-4.8v-6.6
			c0-1.7,0.4-3.3,1.3-4.8c0.8-1.5,2-2.7,3.5-3.6c2.9-1.8,6.6-1.8,9.5,0c1.4,0.9,2.6,2.1,3.5,3.5c0.9,1.5,1.4,3.2,1.3,4.9v6.6
			c0,1.7-0.5,3.4-1.3,4.8c-0.9,1.5-2.1,2.7-3.5,3.6C25.8,46.1,24.1,46.5,22.4,46.5z M22.4,44.6c1.4,0,2.7-0.4,3.9-1.1
			c1.2-0.8,2.1-1.8,2.8-3c0.7-1.2,1.1-2.5,1.1-3.8v-6.6c0-1.3-0.3-2.6-1-3.8c-0.7-1.2-1.6-2.2-2.8-2.9c-1.2-0.8-2.5-1.2-3.9-1.1
			c-1.4,0-2.7,0.4-3.9,1.1c-1.1,0.7-2.1,1.7-2.8,2.9c-0.7,1.1-1,2.5-1,3.8v6.6c0,1.3,0.3,2.7,1,3.8c0.7,1.2,1.6,2.2,2.8,3
			C19.8,44.3,21.1,44.6,22.4,44.6z"/>
		<path class="st0" d="M36.7,46.2c-0.3,0-0.5,0-0.7-0.2c-0.2-0.1-0.3-0.4-0.3-0.6c0-0.1,0-0.2,0-0.3c0-0.1,0.1-0.2,0.2-0.3
			l14.5-22.1H37.2c-0.2,0-0.5-0.1-0.7-0.3c-0.2-0.2-0.3-0.4-0.3-0.6c0-0.3,0.1-0.5,0.3-0.7c0.2-0.2,0.4-0.3,0.7-0.3h15
			c0.5,0,1,0.3,1,0.9c0,0,0,0.1,0,0.1c0,0.2-0.1,0.4-0.2,0.5L38.5,44.3h14.2c0.3,0,0.5,0.1,0.7,0.3c0.2,0.2,0.3,0.4,0.3,0.7
			c0,0.2-0.1,0.5-0.3,0.6c-0.2,0.2-0.4,0.3-0.7,0.3H36.7z"/>
		<path class="st0" d="M27.5,60c-0.5,0-0.9-0.4-0.9-0.9c0-0.2,0.1-0.5,0.2-0.7c0.1-0.2,0.4-0.3,0.6-0.3c1,0,31-1.8,32.2-2
			c1-0.2,1.5-1.6,2.1-2.8c0.7-1.2,1.2-2.5,1.7-3.8c0.5-1.3,1-2.7,1.4-4l-8.6-23.9c-0.1-0.1-0.1-0.2-0.1-0.3c0-0.2,0-0.3,0.1-0.5
			c0.1-0.1,0.2-0.2,0.4-0.3c0.2-0.1,0.3-0.1,0.5-0.1c0.2,0,0.4,0.1,0.5,0.2c0.2,0.1,0.3,0.3,0.3,0.4l7.8,21.6L73.6,21
			c0.1-0.2,0.2-0.3,0.3-0.4c0.2-0.1,0.3-0.2,0.5-0.2c0.2,0,0.3,0,0.5,0.1c0.1,0.1,0.3,0.2,0.3,0.3c0.1,0.2,0.1,0.3,0.1,0.5
			c0,0.1,0,0.2-0.1,0.3l-8.6,23.9c-0.5,1.3-1,2.8-1.6,4.3c-0.6,1.5-1.3,3-2.1,4.4c-0.8,1.4-1.5,2.8-2.6,3.4S28.7,60,27.5,60z"/>
		<path class="st0" d="M127.2,46.5c-1.7,0-3.3-0.5-4.7-1.4c-1.4-0.9-2.6-2.2-3.5-3.6c-0.9-1.5-1.3-3.1-1.3-4.8v-6.6
			c0-1.7,0.4-3.3,1.3-4.8c0.8-1.5,2-2.7,3.5-3.6c2.9-1.8,6.6-1.8,9.6,0c1.4,0.9,2.6,2.1,3.5,3.5c0.9,1.5,1.3,3.2,1.3,4.9v6.6
			c0,1.7-0.5,3.4-1.3,4.8c-0.9,1.5-2.1,2.7-3.5,3.6C130.5,46.1,128.8,46.5,127.2,46.5z M127.2,44.6c1.4,0,2.7-0.4,3.8-1.1
			c1.2-0.8,2.1-1.8,2.8-3c0.7-1.2,1-2.5,1.1-3.8v-6.6c0-1.3-0.3-2.6-1-3.8c-0.7-1.2-1.6-2.2-2.8-2.9c-1.2-0.8-2.5-1.2-3.9-1.1
			c-1.4,0-2.7,0.4-3.9,1.1c-1.1,0.7-2.1,1.7-2.8,2.9c-0.7,1.1-1,2.5-1,3.8v6.6c0,1.3,0.3,2.7,1,3.8c0.7,1.2,1.6,2.3,2.8,3
			C124.4,44.3,125.8,44.7,127.2,44.6z"/>
		<path class="st0" d="M144.1,46.2c-0.2,0-0.5-0.1-0.6-0.3c-0.2-0.2-0.3-0.4-0.3-0.7V21.6c0-0.3,0.1-0.5,0.3-0.7
			c0.2-0.2,0.4-0.2,0.6-0.2c0.3,0,0.5,0.1,0.7,0.2c0.2,0.2,0.3,0.4,0.3,0.7v2.9c0.5-0.7,1-1.4,1.7-2c0.7-0.6,1.6-1.1,2.5-1.5
			c1.1-0.4,2.2-0.6,3.4-0.6h2c0.2,0,0.5,0.1,0.6,0.3c0.2,0.2,0.3,0.4,0.3,0.7c0,0.5-0.4,0.9-0.9,0.9h-2c-1.3,0-2.5,0.3-3.6,1
			c-1.2,0.6-2.1,1.6-2.8,2.7c-0.8,1.3-1.1,2.7-1.1,4.2v15.1c0,0.3-0.1,0.5-0.3,0.7C144.6,46.1,144.3,46.2,144.1,46.2z"/>
		<path class="st0" d="M160.7,46.2c-0.2,0-0.5-0.1-0.6-0.3c-0.2-0.2-0.3-0.4-0.3-0.7V21.6c0-0.2,0.1-0.5,0.2-0.6
			c0.2-0.2,0.4-0.2,0.6-0.2c0.3,0,0.5,0.1,0.7,0.2c0.2,0.2,0.3,0.4,0.3,0.7v2.8c0.7-1.1,1.6-2.1,2.7-2.8c1.3-0.9,2.9-1.3,4.5-1.3
			c1.7,0,3.4,0.4,4.9,1.3c1.5,0.9,2.7,2.1,3.5,3.5c0.9,1.5,1.3,3.2,1.3,4.9v15.1c0,0.3-0.1,0.5-0.3,0.7c-0.2,0.2-0.4,0.2-0.7,0.2
			c-0.2,0-0.4-0.1-0.6-0.2c-0.2-0.2-0.3-0.5-0.3-0.7V30.1c0-1.3-0.4-2.6-1.1-3.8c-0.7-1.2-1.6-2.2-2.8-2.9c-1.1-0.8-2.5-1.2-3.8-1.1
			c-1.2,0-2.5,0.3-3.5,1c-1.1,0.6-2.1,1.6-2.8,2.7c-0.8,1.3-1.1,2.7-1.1,4.2v15.1c0,0.3-0.1,0.5-0.3,0.7
			C161.2,46.1,160.9,46.2,160.7,46.2z"/>
		<path class="st0" d="M195.7,46.5c-2,0-3.9-0.4-5.6-1.2c-1.6-0.8-2.9-2-3.9-3.4c-1-1.5-1.4-3.3-1.4-5.2V30c0-1.7,0.4-3.3,1.3-4.8
			c0.9-1.4,2.1-2.6,3.5-3.5c1.4-0.9,3.1-1.3,4.8-1.3c1.7,0,3.3,0.4,4.7,1.3c1.4,0.8,2.6,2,3.5,3.5c0.9,1.5,1.4,3.2,1.3,5
			c0.1,1-0.1,2-0.6,2.8c-0.4,0.5-1,0.9-1.6,1c-0.7,0.1-1.4,0.2-2.2,0.2h-12.8v2.5c-0.1,2.2,0.9,4.4,2.6,5.8c1.9,1.5,4.2,2.2,6.5,2.1
			c1.9,0.2,3.8-0.4,5.3-1.6c0.3-0.3,0.7-0.5,1.1-0.5c0.2,0,0.3,0.1,0.5,0.2c0.1,0.1,0.2,0.2,0.3,0.4c0.1,0.1,0.1,0.3,0.1,0.4
			c0,0.3-0.3,0.7-0.9,1.2c-0.8,0.6-1.6,1-2.5,1.3C198.4,46.4,197.1,46.6,195.7,46.5z M186.7,32.3h12.1c0.9,0.1,1.8-0.1,2.6-0.4
			c0.5-0.4,0.7-1,0.6-1.6c0-2.7-1.4-5.3-3.6-6.8c-1.2-0.8-2.6-1.2-4-1.2c-1.4,0-2.7,0.4-3.9,1.1c-1.1,0.7-2.1,1.7-2.8,2.8
			c-0.7,1.1-1,2.5-1,3.8L186.7,32.3z"/>
		<path class="st0" d="M210.7,46.2c-0.2,0-0.5-0.1-0.6-0.3c-0.2-0.2-0.3-0.4-0.3-0.7V21.6c0-0.2,0.1-0.5,0.2-0.6
			c0.2-0.2,0.4-0.2,0.6-0.2c0.3,0,0.5,0.1,0.7,0.2c0.2,0.2,0.3,0.4,0.3,0.7v2.8c0.5-0.7,1-1.4,1.7-2c0.7-0.6,1.6-1.2,2.5-1.5
			c1.1-0.4,2.2-0.6,3.4-0.6h2c0.2,0,0.5,0.1,0.6,0.3c0.2,0.2,0.3,0.4,0.3,0.7c0,0.2-0.1,0.5-0.3,0.6c-0.2,0.2-0.4,0.3-0.6,0.3h-2
			c-2.6,0-5,1.4-6.4,3.6c-0.8,1.3-1.1,2.7-1.1,4.2v15.1c0,0.3-0.1,0.5-0.3,0.7C211.2,46.1,210.9,46.2,210.7,46.2z"/>
	</g>
</g>
</svg>
