<svg xmlns="http://www.w3.org/2000/svg" viewBox="0 0 222.08 60.73"><defs><style>.cls-1{fill:#fff;}</style></defs><title>Asset 1</title><g id="Layer_2" data-name="Layer 2"><g id="Layer_1-2" data-name="Layer 1"><path class="cls-1" d="M10.58,60.55a12.6,12.6,0,0,1-5.29-1.11A8.51,8.51,0,0,1,1.43,55.9,12.75,12.75,0,0,1,0,49.42l4.66-38.3A12.34,12.34,0,0,1,6.14,4.64a8.82,8.82,0,0,1,3.92-3.53A12.71,12.71,0,0,1,15.41,0a12,12,0,0,1,5.75,1.24,8.7,8.7,0,0,1,3.45,3.19,7.7,7.7,0,0,1,1.16,4.05,2.06,2.06,0,0,1-.24,1.21.87.87,0,0,1-.73.3c-.47,0-.75-.12-.84-.35A1.72,1.72,0,0,1,23.83,9a9.89,9.89,0,0,0-.41-2.19,6.48,6.48,0,0,0-1.24-2.32,6.6,6.6,0,0,0-2.54-1.84,10.78,10.78,0,0,0-4.29-.73q-4.26,0-6.51,2.25T6.6,11.12L1.94,49.42q0,4.76,2.27,7C5.72,57.86,8,58.6,10.91,58.6a10.55,10.55,0,0,0,4.26-.7,5.89,5.89,0,0,0,2.38-1.78,6.58,6.58,0,0,0,1.13-2.32c.22-.83.38-1.59.49-2.27a2.09,2.09,0,0,1,.22-.68c.1-.2.36-.3.75-.3a.84.84,0,0,1,.73.33,2.22,2.22,0,0,1,.24,1.24,7.6,7.6,0,0,1-1.18,4,8.88,8.88,0,0,1-3.54,3.18A12.3,12.3,0,0,1,10.58,60.55Z"/><path class="cls-1" d="M110.24,60.73a12.72,12.72,0,0,1-5.29-1.1,8.51,8.51,0,0,1-3.86-3.54,12.65,12.65,0,0,1-1.43-6.48l4.65-38.3a12.33,12.33,0,0,1,1.49-6.48,8.82,8.82,0,0,1,3.91-3.54,12.9,12.9,0,0,1,5.35-1.1,12,12,0,0,1,5.75,1.24,8.79,8.79,0,0,1,3.46,3.19,7.79,7.79,0,0,1,1.16,4.05,2.08,2.08,0,0,1-.24,1.21.9.9,0,0,1-.73.3c-.47,0-.75-.12-.84-.35a1.8,1.8,0,0,1-.14-.62,9.82,9.82,0,0,0-.4-2.19,6.81,6.81,0,0,0-1.24-2.32,6.68,6.68,0,0,0-2.54-1.84A10.64,10.64,0,0,0,115,2.13q-4.28,0-6.51,2.24t-2.24,6.94l-4.66,38.3q0,4.76,2.27,7t6.69,2.22a10.82,10.82,0,0,0,4.27-.7,5.85,5.85,0,0,0,2.37-1.79A6.53,6.53,0,0,0,118.34,54a23,23,0,0,0,.49-2.27A1.82,1.82,0,0,1,119,51c.11-.2.36-.3.76-.3a.86.86,0,0,1,.73.33,2.22,2.22,0,0,1,.24,1.24,7.55,7.55,0,0,1-1.19,4A8.84,8.84,0,0,1,116,59.49,12.26,12.26,0,0,1,110.24,60.73Z"/><path class="cls-1" d="M22.44,46.53a8.68,8.68,0,0,1-4.72-1.38,10.49,10.49,0,0,1-3.51-3.62,9.33,9.33,0,0,1-1.32-4.83V30.11a9.34,9.34,0,0,1,1.29-4.8,10.2,10.2,0,0,1,3.49-3.57,9.18,9.18,0,0,1,9.55,0,10.17,10.17,0,0,1,3.51,3.51,9.15,9.15,0,0,1,1.33,4.88V36.7a9.36,9.36,0,0,1-1.33,4.81,10.46,10.46,0,0,1-3.51,3.64A8.76,8.76,0,0,1,22.44,46.53Zm0-1.89a6.91,6.91,0,0,0,3.89-1.14,8.52,8.52,0,0,0,2.78-3,7.51,7.51,0,0,0,1.06-3.83V30.11a7.51,7.51,0,0,0-1-3.78,8.33,8.33,0,0,0-2.78-2.91,7.05,7.05,0,0,0-3.92-1.14,6.87,6.87,0,0,0-3.88,1.14,8.45,8.45,0,0,0-2.76,2.91,7.5,7.5,0,0,0-1,3.78V36.7a7.77,7.77,0,0,0,1,3.83,8.26,8.26,0,0,0,2.78,3A7,7,0,0,0,22.44,44.64Z"/><path class="cls-1" d="M36.7,46.2A1,1,0,0,1,36,46a.76.76,0,0,1-.3-.62,1.81,1.81,0,0,1,.05-.32.73.73,0,0,1,.16-.33L50.36,22.61H37.24a1,1,0,0,1-.67-.27.85.85,0,0,1-.3-.65.89.89,0,0,1,.3-.7,1,1,0,0,1,.67-.27h15a.93.93,0,0,1,1,1,1,1,0,0,1-.16.54L38.54,44.31h14.2a.94.94,0,0,1,.7.27,1,1,0,0,1,.27.71.87.87,0,0,1-.27.64.94.94,0,0,1-.7.27Z"/><path class="cls-1" d="M27.49,60a.92.92,0,0,1-.92-.92,1.22,1.22,0,0,1,.19-.68.69.69,0,0,1,.62-.29c1,0,31-1.75,32.19-2,1-.21,1.47-1.64,2.1-2.81a31.28,31.28,0,0,0,1.71-3.78c.5-1.35,1-2.67,1.45-4L56.19,21.63a.79.79,0,0,1-.1-.32.78.78,0,0,1,.13-.46,1.22,1.22,0,0,1,.38-.32,1,1,0,0,1,.51-.14,1.12,1.12,0,0,1,.54.16A.68.68,0,0,1,58,21l7.83,21.6L73.58,21a1,1,0,0,1,.35-.44,1,1,0,0,1,.52-.16,1.06,1.06,0,0,1,.48.11.85.85,0,0,1,.35.3.84.84,0,0,1,.14.51.67.67,0,0,1-.06.32L66.72,45.5q-.69,2-1.62,4.35A35.34,35.34,0,0,1,63,54.28c-.77,1.38-1.49,2.83-2.64,3.4S28.71,60,27.49,60Z"/><path class="cls-1" d="M127.15,46.53a8.72,8.72,0,0,1-4.73-1.38,10.67,10.67,0,0,1-3.51-3.62,9.33,9.33,0,0,1-1.32-4.83V30.11a9.25,9.25,0,0,1,1.3-4.8,10.08,10.08,0,0,1,3.48-3.57,9.2,9.2,0,0,1,9.56,0,10.17,10.17,0,0,1,3.51,3.51,9.23,9.23,0,0,1,1.32,4.88V36.7a9.45,9.45,0,0,1-1.32,4.81,10.46,10.46,0,0,1-3.51,3.64A8.79,8.79,0,0,1,127.15,46.53Zm0-1.89A6.93,6.93,0,0,0,131,43.5a8.52,8.52,0,0,0,2.78-3,7.6,7.6,0,0,0,1.05-3.83V30.11a7.41,7.41,0,0,0-1-3.78,8.33,8.33,0,0,0-2.78-2.91,7,7,0,0,0-3.91-1.14,6.91,6.91,0,0,0-3.89,1.14,8.42,8.42,0,0,0-2.75,2.91,7.41,7.41,0,0,0-1,3.78V36.7a7.67,7.67,0,0,0,1,3.83,8.17,8.17,0,0,0,2.78,3A6.93,6.93,0,0,0,127.15,44.64Z"/><path class="cls-1" d="M144.05,46.2a.84.84,0,0,1-.65-.29,1,1,0,0,1-.27-.68V21.63a.86.86,0,0,1,.27-.67,1,1,0,0,1,.65-.24,1,1,0,0,1,.7.24.86.86,0,0,1,.27.67V24.5a8.47,8.47,0,0,1,1.68-2A8.35,8.35,0,0,1,149.18,21a8.74,8.74,0,0,1,3.35-.6h2a.87.87,0,0,1,.64.27,1,1,0,0,1,.27.7.92.92,0,0,1-.91.92h-2a7.44,7.44,0,0,0-3.62.95,7.57,7.57,0,0,0-2.81,2.67A7.8,7.8,0,0,0,145,30.11V45.23a1,1,0,0,1-.27.68A.89.89,0,0,1,144.05,46.2Z"/><path class="cls-1" d="M160.68,46.2a.84.84,0,0,1-.65-.29,1,1,0,0,1-.27-.68V21.63A.86.86,0,0,1,160,21a1,1,0,0,1,.65-.24,1,1,0,0,1,.7.24.86.86,0,0,1,.27.67V24.5a9.26,9.26,0,0,1,2.73-2.84,7.72,7.72,0,0,1,4.51-1.27,9.25,9.25,0,0,1,4.86,1.33,10.17,10.17,0,0,1,3.54,3.51,9.23,9.23,0,0,1,1.32,4.88V45.23a.87.87,0,0,1-.3.73,1,1,0,0,1-.67.24A1,1,0,0,1,177,46a.87.87,0,0,1-.3-.73V30.11a7.34,7.34,0,0,0-1.05-3.78,8.8,8.8,0,0,0-2.78-2.91,6.84,6.84,0,0,0-3.84-1.14,7.23,7.23,0,0,0-3.54.95,7.64,7.64,0,0,0-2.78,2.67,7.8,7.8,0,0,0-1.08,4.21V45.23a1,1,0,0,1-.27.68A.89.89,0,0,1,160.68,46.2Z"/><path class="cls-1" d="M195.73,46.53a12.46,12.46,0,0,1-5.65-1.24,9.81,9.81,0,0,1-3.86-3.43,9.4,9.4,0,0,1-1.4-5.16V30a9.08,9.08,0,0,1,1.32-4.78,9.92,9.92,0,0,1,3.51-3.48,9.16,9.16,0,0,1,4.78-1.3,9.34,9.34,0,0,1,4.73,1.27,9.94,9.94,0,0,1,3.51,3.46,9.47,9.47,0,0,1,1.32,5,4.77,4.77,0,0,1-.65,2.81,2.56,2.56,0,0,1-1.65,1,11.34,11.34,0,0,1-2.18.19h-12.8V36.7a7.1,7.1,0,0,0,2.59,5.8,9.91,9.91,0,0,0,6.53,2.14A7.33,7.33,0,0,0,201.1,43a1.78,1.78,0,0,1,1.11-.54.76.76,0,0,1,.48.17A1.23,1.23,0,0,1,203,43a.84.84,0,0,1,.14.44c0,.32-.3.73-.89,1.24A8.06,8.06,0,0,1,199.72,46,12.41,12.41,0,0,1,195.73,46.53Zm-9-14.26h12.15a5.74,5.74,0,0,0,2.62-.38,1.77,1.77,0,0,0,.62-1.62,8.38,8.38,0,0,0-3.62-6.8,7,7,0,0,0-4-1.19,7.3,7.3,0,0,0-3.91,1.08,8.24,8.24,0,0,0-2.79,2.81,7.29,7.29,0,0,0-1,3.78Z"/><path class="cls-1" d="M210.68,46.2a.82.82,0,0,1-.64-.29,1,1,0,0,1-.27-.68V21.63A.86.86,0,0,1,210,21a.93.93,0,0,1,.64-.24,1,1,0,0,1,.71.24.86.86,0,0,1,.27.67V24.5a8.67,8.67,0,0,1,1.67-2A8.35,8.35,0,0,1,215.81,21a8.78,8.78,0,0,1,3.35-.6h2a.89.89,0,0,1,.65.27,1,1,0,0,1,.27.7.88.88,0,0,1-.27.65.89.89,0,0,1-.65.27h-2a7.62,7.62,0,0,0-6.42,3.62,7.8,7.8,0,0,0-1.08,4.21V45.23a1,1,0,0,1-.27.68A.91.91,0,0,1,210.68,46.2Z"/></g></g></svg>